<?xml version="1.0" encoding="UTF-8" standalone="no"?>
<!DOCTYPE svg PUBLIC "-//W3C//DTD SVG 1.1//EN"
 "http://www.w3.org/Graphics/SVG/1.1/DTD/svg11.dtd">
<!-- Generated by graphviz version 7.1.0 (0)
 -->
<!-- Pages: 1 -->
<svg width="281pt" height="566pt"
 viewBox="0.00 0.00 280.98 566.00" xmlns="http://www.w3.org/2000/svg" xmlns:xlink="http://www.w3.org/1999/xlink">
<g id="graph0" class="graph" transform="scale(1 1) rotate(0) translate(4 562)">
<polygon fill="white" stroke="none" points="-4,4 -4,-562 276.98,-562 276.98,4 -4,4"/>
<!-- 6 -->
<g id="node1" class="node">
<title>6</title>
<ellipse fill="none" stroke="black" cx="200.49" cy="-192" rx="53.89" ry="18"/>
<text text-anchor="middle" x="200.49" y="-188.3" font-family="Times,serif" font-size="14.00">commit 5</text>
</g>
<!-- 8 -->
<g id="node2" class="node">
<title>8</title>
<ellipse fill="none" stroke="black" cx="136.49" cy="-105" rx="136.48" ry="18"/>
<text text-anchor="middle" x="136.49" y="-101.3" font-family="Times,serif" font-size="14.00">merge into main, commit 6</text>
</g>
<!-- 6&#45;&gt;8 -->
<g id="edge1" class="edge">
<title>6&#45;&gt;8</title>
<path fill="none" stroke="black" d="M187.84,-174.21C178.85,-162.26 166.58,-145.96 156.29,-132.3"/>
<polygon fill="black" stroke="black" points="159.27,-130.43 150.46,-124.55 153.67,-134.65 159.27,-130.43"/>
<text text-anchor="middle" x="190.49" y="-144.8" font-family="Times,serif" font-size="14.00">main</text>
</g>
<!-- 9 -->
<g id="node5" class="node">
<title>9</title>
<ellipse fill="none" stroke="black" cx="136.49" cy="-18" rx="53.89" ry="18"/>
<text text-anchor="middle" x="136.49" y="-14.3" font-family="Times,serif" font-size="14.00">commit 7</text>
</g>
<!-- 8&#45;&gt;9 -->
<g id="edge4" class="edge">
<title>8&#45;&gt;9</title>
<path fill="none" stroke="black" d="M136.49,-86.8C136.49,-75.58 136.49,-60.67 136.49,-47.69"/>
<polygon fill="black" stroke="black" points="139.99,-47.98 136.49,-37.98 132.99,-47.98 139.99,-47.98"/>
<text text-anchor="middle" x="154.49" y="-57.8" font-family="Times,serif" font-size="14.00">main</text>
</g>
<!-- 5 -->
<g id="node3" class="node">
<title>5</title>
<ellipse fill="none" stroke="black" cx="74.49" cy="-279" rx="53.89" ry="18"/>
<text text-anchor="middle" x="74.49" y="-275.3" font-family="Times,serif" font-size="14.00">commit 1</text>
</g>
<!-- 7 -->
<g id="node4" class="node">
<title>7</title>
<ellipse fill="none" stroke="black" cx="74.49" cy="-192" rx="53.89" ry="18"/>
<text text-anchor="middle" x="74.49" y="-188.3" font-family="Times,serif" font-size="14.00">commit 2</text>
</g>
<!-- 5&#45;&gt;7 -->
<g id="edge2" class="edge">
<title>5&#45;&gt;7</title>
<path fill="none" stroke="black" d="M74.49,-260.8C74.49,-249.58 74.49,-234.67 74.49,-221.69"/>
<polygon fill="black" stroke="black" points="77.99,-221.98 74.49,-211.98 70.99,-221.98 77.99,-221.98"/>
<text text-anchor="middle" x="100.49" y="-231.8" font-family="Times,serif" font-size="14.00">feature</text>
</g>
<!-- 7&#45;&gt;8 -->
<g id="edge3" class="edge">
<title>7&#45;&gt;8</title>
<path fill="none" stroke="black" d="M86.74,-174.21C95.45,-162.26 107.34,-145.96 117.31,-132.3"/>
<polygon fill="black" stroke="black" points="119.88,-134.71 122.95,-124.56 114.23,-130.58 119.88,-134.71"/>
<text text-anchor="middle" x="132.49" y="-144.8" font-family="Times,serif" font-size="14.00">merge</text>
</g>
<!-- 1 -->
<g id="node6" class="node">
<title>1</title>
<ellipse fill="none" stroke="black" cx="136.49" cy="-540" rx="53.89" ry="18"/>
<text text-anchor="middle" x="136.49" y="-536.3" font-family="Times,serif" font-size="14.00">commit 1</text>
</g>
<!-- 2 -->
<g id="node7" class="node">
<title>2</title>
<ellipse fill="none" stroke="black" cx="136.49" cy="-453" rx="53.89" ry="18"/>
<text text-anchor="middle" x="136.49" y="-449.3" font-family="Times,serif" font-size="14.00">commit 2</text>
</g>
<!-- 1&#45;&gt;2 -->
<g id="edge5" class="edge">
<title>1&#45;&gt;2</title>
<path fill="none" stroke="black" d="M136.49,-521.8C136.49,-510.58 136.49,-495.67 136.49,-482.69"/>
<polygon fill="black" stroke="black" points="139.99,-482.98 136.49,-472.98 132.99,-482.98 139.99,-482.98"/>
<text text-anchor="middle" x="154.49" y="-492.8" font-family="Times,serif" font-size="14.00">main</text>
</g>
<!-- 3 -->
<g id="node8" class="node">
<title>3</title>
<ellipse fill="none" stroke="black" cx="136.49" cy="-366" rx="53.89" ry="18"/>
<text text-anchor="middle" x="136.49" y="-362.3" font-family="Times,serif" font-size="14.00">commit 3</text>
</g>
<!-- 2&#45;&gt;3 -->
<g id="edge9" class="edge">
<title>2&#45;&gt;3</title>
<path fill="none" stroke="black" d="M136.49,-434.8C136.49,-423.58 136.49,-408.67 136.49,-395.69"/>
<polygon fill="black" stroke="black" points="139.99,-395.98 136.49,-385.98 132.99,-395.98 139.99,-395.98"/>
<text text-anchor="middle" x="154.49" y="-405.8" font-family="Times,serif" font-size="14.00">main</text>
</g>
<!-- 3&#45;&gt;5 -->
<g id="edge7" class="edge">
<title>3&#45;&gt;5</title>
<path fill="none" stroke="black" d="M124.24,-348.21C115.41,-336.1 103.32,-319.53 93.28,-305.76"/>
<polygon fill="black" stroke="black" points="96.32,-304 87.6,-297.98 90.67,-308.12 96.32,-304"/>
<text text-anchor="middle" x="135.49" y="-318.8" font-family="Times,serif" font-size="14.00">feature</text>
</g>
<!-- 4 -->
<g id="node9" class="node">
<title>4</title>
<ellipse fill="none" stroke="black" cx="200.49" cy="-279" rx="53.89" ry="18"/>
<text text-anchor="middle" x="200.49" y="-275.3" font-family="Times,serif" font-size="14.00">commit 4</text>
</g>
<!-- 3&#45;&gt;4 -->
<g id="edge6" class="edge">
<title>3&#45;&gt;4</title>
<path fill="none" stroke="black" d="M150.63,-348.49C155.45,-342.72 160.8,-336.15 165.49,-330 171.27,-322.42 177.31,-313.98 182.72,-306.24"/>
<polygon fill="black" stroke="black" points="185.5,-308.37 188.29,-298.16 179.73,-304.4 185.5,-308.37"/>
<text text-anchor="middle" x="194.49" y="-318.8" font-family="Times,serif" font-size="14.00">main</text>
</g>
<!-- 4&#45;&gt;6 -->
<g id="edge8" class="edge">
<title>4&#45;&gt;6</title>
<path fill="none" stroke="black" d="M200.49,-260.8C200.49,-249.58 200.49,-234.67 200.49,-221.69"/>
<polygon fill="black" stroke="black" points="203.99,-221.98 200.49,-211.98 196.99,-221.98 203.99,-221.98"/>
<text text-anchor="middle" x="218.49" y="-231.8" font-family="Times,serif" font-size="14.00">main</text>
</g>
</g>
</svg>
